<!DOCTYPE svg PUBLIC "-//W3C//DTD SVG 1.1//EN" "http://www.w3.org/Graphics/SVG/1.1/DTD/svg11.dtd">
<!-- Uploaded to: SVG Repo, www.svgrepo.com, Transformed by: SVG Repo Mixer Tools -->
<svg width="800px" height="800px" viewBox="-2.4 -2.4 28.80 28.80" fill="none" xmlns="http://www.w3.org/2000/svg">
<g id="SVGRepo_bgCarrier" stroke-width="0" transform="translate(4.800000000000001,4.800000000000001), scale(0.6)">
<path transform="translate(-2.4, -2.4), scale(0.8999999999999999)" d="M16,27.893990935550796C19.54143603116596,27.755798370541378,23.519690941085308,28.53130660137244,26.062380912210692,26.062380912210692C28.622367810956334,23.57666008505329,28.58240594564086,19.552662911974764,28.249348613950943,16C27.951473582033742,12.82262037912201,26.645244459316793,9.866761914358882,24.337424133589018,7.662575866410986C22.084695347518398,5.511007434192757,19.11512579766605,4.3057135914642535,16,4.300716910097334C12.879712832241367,4.295711949860333,10.032702942059757,5.638035640544052,7.635786334363539,7.6357863343635355C4.945582707929088,9.877982055302965,2.4170078178929217,12.527448439946724,1.9631104005707627,15.999999999999998C1.4543285703313336,19.892445893937982,2.125463882007167,24.341820666380375,5.12043028411512,26.879569715884877C8.009200497011664,29.327334691430295,12.216516176945317,28.04162859710343,16,27.893990935550796" fill="#ffffff" strokewidth="0"/>
</g>
<g id="SVGRepo_tracerCarrier" stroke-linecap="round" stroke-linejoin="round"/>
<g id="SVGRepo_iconCarrier"> <path d="M12 2C6.49 2 2 6.49 2 12C2 17.51 6.49 22 12 22C17.51 22 22 17.51 22 12C22 6.49 17.51 2 12 2ZM15.36 14.3C15.65 14.59 15.65 15.07 15.36 15.36C15.21 15.51 15.02 15.58 14.83 15.58C14.64 15.58 14.45 15.51 14.3 15.36L12 13.06L9.7 15.36C9.55 15.51 9.36 15.58 9.17 15.58C8.98 15.58 8.79 15.51 8.64 15.36C8.35 15.07 8.35 14.59 8.64 14.3L10.94 12L8.64 9.7C8.35 9.41 8.35 8.93 8.64 8.64C8.93 8.35 9.41 8.35 9.7 8.64L12 10.94L14.3 8.64C14.59 8.35 15.07 8.35 15.36 8.64C15.65 8.93 15.65 9.41 15.36 9.7L13.06 12L15.36 14.3Z" fill="#292D32"/> </g>
</svg>